# xmcd CD database file
# Copyright (C) 1996 Ti Kan
#
# Track frame offsets:
#  150
#  14680
#  29475
#  46365
#  64882
#  81455
#  98690
#  112562
#  135375
#  147095
#  161947
#  178322
#
# Disc length: 2687 seconds
#
# Revision: 1
# Processed by: cddbd v1.4b41PL1 Copyright (c) Steve Scherf et al.
# Submitted via: CDWizzard Release:4.13
#
DISCID=a40a7d0c
DTITLE=Kitty Donohoe - As Sparks Fly Upward
DYEAR=1900
DGENRE=
TTITLE0=Chester City
TTITLE1=Steady as a River
TTITLE2=Give In to the Blues
TTITLE3=Thin Ice
TTITLE4=Look for the Light
TTITLE5=Autumn Dance
TTITLE6=Seasons of the Heart
TTITLE7=Emma Sutter
TTITLE8=Angelo's
TTITLE9=North Country
TTITLE10=Blue Collar Poet
TTITLE11=To America
EXTD=
EXTT0=
EXTT1=
EXTT2=
EXTT3=
EXTT4=
EXTT5=
EXTT6=
EXTT7=
EXTT8=
EXTT9=
EXTT10=
EXTT11=
PLAYORDER=
